<svg width="24" height="24" viewBox="0 0 24 24" fill="none" xmlns="http://www.w3.org/2000/svg">
<g opacity="0.9">
<path d="M18.2708 2.12434C18.1501 2.04978 18.0123 2.00727 17.8706 2.00085C17.7288 1.99444 17.5878 2.02432 17.4608 2.08768L10.97 5.33351H6.16667C5.0616 5.33351 4.00179 5.7725 3.22039 6.5539C2.43899 7.3353 2 8.39511 2 9.50018C2 10.6052 2.43899 11.6651 3.22039 12.4465C4.00179 13.2279 5.0616 13.6668 6.16667 13.6668H10.97L17.4608 16.9168C17.5882 16.9805 17.7298 17.0105 17.8721 17.0038C18.0143 16.9972 18.1525 16.9542 18.2735 16.879C18.3944 16.8038 18.494 16.6989 18.5629 16.5742C18.6317 16.4495 18.6674 16.3093 18.6667 16.1668V2.83351C18.6667 2.69136 18.6303 2.55157 18.561 2.42744C18.4917 2.30331 18.3918 2.19897 18.2708 2.12434Z" fill="white"/>
<path d="M19.5 7.00024V12.0002C20.163 12.0002 20.7989 11.7369 21.2678 11.268C21.7366 10.7992 22 10.1633 22 9.50024C22 8.8372 21.7366 8.20132 21.2678 7.73248C20.7989 7.26364 20.163 7.00024 19.5 7.00024Z" fill="white"/>
<path d="M10.4516 15.3335H6.84415L8.78915 20.1202C8.96549 20.5131 9.2871 20.8225 9.68655 20.9836C10.086 21.1446 10.5323 21.1447 10.9319 20.984C11.3314 20.8232 11.6532 20.514 11.8298 20.1212C12.0064 19.7283 12.0241 19.2824 11.8791 18.8768L10.4516 15.3335Z" fill="white"/>
</g>
</svg>
