<svg width="16" height="16" viewBox="0 0 16 16" fill="none" xmlns="http://www.w3.org/2000/svg">
<path d="M4.8928 6.72301L8.00039 3.61678L11.1092 6.72554L12.9164 4.91715L8.00039 0L3.08435 4.91588L4.8928 6.72301Z" fill="white"/>
<path d="M1.80778 6.19267L0 8.0004L1.80778 9.80812L3.61557 8.0004L1.80778 6.19267Z" fill="white"/>
<path d="M4.89276 9.27699L8.00035 12.3845L11.1092 9.27573L12.9177 11.0816L12.9164 11.0828L8.00035 16L3.08431 11.0854L3.08179 11.0828L4.89276 9.27699Z" fill="white"/>
<path d="M14.1923 6.19313L12.3845 8.00085L14.1923 9.80858L16.0001 8.00085L14.1923 6.19313Z" fill="white"/>
<path d="M9.83403 7.99935L8.00031 6.16443L6.64429 7.5204L6.48759 7.67584L6.16659 7.99683L6.16406 7.99935L6.16659 8.00315L8.00031 9.83555L9.83403 8.00062L9.83529 7.99935H9.83403Z" fill="white"/>
</svg>
