<svg width="20" height="20" viewBox="0 0 20 20" fill="none" xmlns="http://www.w3.org/2000/svg">
<path d="M6.874 5.19466C7.55951 4.79739 8.32267 4.55273 9.11138 4.47738V0C8.44503 0.0336329 7.78369 0.133714 7.13723 0.298755L6.61078 2.47296C5.9027 2.75874 5.23818 3.14239 4.63663 3.6127L2.5006 2.98229C1.31431 4.1899 0.453922 5.67883 0 7.30963L1.61881 8.85079C1.60565 8.94687 1.5938 9.04426 1.58327 9.14033V9.14823C1.51428 9.80529 1.52666 10.4684 1.62012 11.1224L0 12.6728C0.176524 13.3093 0.416375 13.9266 0.71596 14.5153L4.59715 12.2779C4.02914 11.0254 3.94765 9.60622 4.36853 8.29686C4.78941 6.98751 5.68254 5.88166 6.874 5.19466Z" fill="#F3BA2F"/>
<path d="M14.0709 10.2435C14.212 7.79589 12.3422 5.69727 9.89459 5.55614C7.44695 5.41501 5.34833 7.28481 5.2072 9.73245C5.06607 12.1801 6.93587 14.2787 9.38351 14.4198C11.8312 14.561 13.9298 12.6912 14.0709 10.2435Z" fill="#F3BA2F"/>
<path d="M12.4134 14.7889C11.2212 15.4772 9.81535 15.6967 8.47004 15.4047C7.12472 15.1127 5.93638 14.3302 5.13671 13.2096L1.25684 15.447C1.61891 16.0054 2.03553 16.5265 2.50055 17.0026L4.6458 16.3735C4.94495 16.6074 5.26029 16.8198 5.58945 17.0092C5.92002 17.2 6.26348 17.3675 6.61732 17.5106L7.14376 19.6848C8.78437 20.1049 10.5044 20.1049 12.145 19.6848L12.6714 17.5133C12.9927 17.3825 13.3056 17.2322 13.6085 17.0631L13.6993 17.0105C13.8748 16.9105 14.0445 16.8043 14.2086 16.692L14.256 16.6591C14.3876 16.5683 14.5192 16.4722 14.6508 16.3735L16.7934 17.0013C17.2557 16.5282 17.67 16.0107 18.0306 15.4562L14.152 13.2188C13.6919 13.8609 13.0989 14.3964 12.4134 14.7889Z" fill="#F3BA2F"/>
<path d="M17.6688 11.129C17.6912 10.9697 17.7096 10.8105 17.7227 10.6512C17.722 10.6376 17.722 10.624 17.7227 10.6104C17.7674 10.024 17.748 9.43436 17.6648 8.85211L19.2823 7.31227C18.8284 5.68146 17.968 4.19253 16.7817 2.98492L14.6417 3.61533C14.0409 3.14403 13.3762 2.7603 12.6676 2.47559L12.1411 0.300071C11.5045 0.136851 10.8535 0.0363483 10.1973 0V4.47475C11.0734 4.56165 11.9162 4.85628 12.6556 5.33418C13.395 5.81207 14.0098 6.45946 14.4489 7.22258C14.888 7.9857 15.1387 8.84255 15.1803 9.722C15.2218 10.6014 15.053 11.4781 14.6878 12.2792L18.5677 14.5166C18.8682 13.9279 19.1094 13.3106 19.2876 12.6741L17.6688 11.129Z" fill="#F3BA2F"/>
<path d="M11.375 9.25H11.1667V8.5C11.1667 7.67273 10.4192 7 9.5 7C8.58081 7 7.83333 7.67273 7.83333 8.5V9.25H7.625C7.28056 9.25 7 9.50223 7 9.8125V12.4375C7 12.7478 7.28056 13 7.625 13H11.375C11.7194 13 12 12.7478 12 12.4375V9.8125C12 9.50223 11.7194 9.25 11.375 9.25ZM8.38891 8.5C8.38891 7.94849 8.88721 7.50002 9.5 7.50002C10.1128 7.50002 10.6111 7.94849 10.6111 8.5V9.25H8.38891V8.5Z" fill="black"/>
</svg>
