<svg width="20" height="20" viewBox="0 0 20 20" fill="none" xmlns="http://www.w3.org/2000/svg">
<circle cx="10" cy="10" r="10" fill="white"/>
<path d="M4.74091 9.57014C4.74089 9.46962 4.76073 9.37009 4.79928 9.27726C4.83783 9.18443 4.89434 9.10013 4.96555 9.02921C5.03676 8.95829 5.12128 8.90215 5.21425 8.864C5.30722 8.82585 5.40681 8.80646 5.50729 8.80692L6.77788 8.81109C6.98047 8.81109 7.17476 8.8916 7.31802 9.0349C7.46127 9.17821 7.54175 9.37257 7.54175 9.57523V14.3815C7.68488 14.3391 7.86845 14.2938 8.06954 14.2466C8.20917 14.2138 8.3336 14.1347 8.42267 14.0222C8.51174 13.9097 8.56023 13.7704 8.56026 13.627V7.66522C8.56026 7.56485 8.58001 7.46547 8.6184 7.37274C8.65678 7.28001 8.71305 7.19576 8.78399 7.12478C8.85493 7.05381 8.93914 6.99751 9.03183 6.95909C9.12452 6.92067 9.22387 6.9009 9.32419 6.90089H10.5973C10.7999 6.90092 10.9941 6.98144 11.1374 7.12474C11.2806 7.26804 11.3611 7.46238 11.3612 7.66503V13.1985C11.3612 13.1985 11.6798 13.0694 11.9904 12.9383C12.1057 12.8895 12.2041 12.8078 12.2733 12.7034C12.3425 12.5991 12.3795 12.4766 12.3796 12.3513V5.75453C12.3796 5.65418 12.3994 5.55481 12.4377 5.46211C12.4761 5.3694 12.5324 5.28516 12.6033 5.2142C12.6742 5.14324 12.7584 5.08696 12.8511 5.04855C12.9438 5.01015 13.0431 4.99039 13.1434 4.99039H14.4165C14.6191 4.99039 14.8134 5.07089 14.9567 5.21419C15.0999 5.3575 15.1804 5.55186 15.1805 5.75453V11.1866C16.2842 10.3864 17.4028 9.42396 18.2905 8.26668C18.4193 8.0987 18.5046 7.90143 18.5386 7.69249C18.5727 7.48354 18.5545 7.26941 18.4857 7.0692C17.885 5.31813 16.7584 3.79539 15.2598 2.70918C13.7612 1.62297 11.9638 1.02632 10.1133 1.00082C5.12343 0.933761 0.999553 5.00847 1.00004 10.0007C0.995144 11.5804 1.4073 13.1334 2.19484 14.5027C2.30344 14.69 2.46322 14.8424 2.6554 14.942C2.84759 15.0416 3.06419 15.0842 3.27977 15.0649C3.52063 15.0437 3.82049 15.0138 4.17697 14.9719C4.33213 14.9542 4.47537 14.8801 4.57942 14.7636C4.68347 14.6471 4.74106 14.4964 4.74121 14.3402V9.57014" fill="black"/>
<path d="M4.7132 17.2782C6.05516 18.2548 7.64103 18.841 9.29535 18.9719C10.9497 19.1029 12.608 18.7735 14.0867 18.0201C15.5655 17.2668 16.8072 16.1189 17.6743 14.7035C18.5414 13.2881 19.0002 11.6603 19 10.0002C19 9.79298 18.9904 9.58808 18.9765 9.38428C15.6898 14.2877 9.62122 16.5801 4.71313 17.2784" fill="#F3BA2F"/>
</svg>
