<svg width="50" height="51" viewBox="0 0 50 51" fill="none" xmlns="http://www.w3.org/2000/svg">
<path d="M43.4632 30.3203C42.658 30.8745 41.6104 30.9437 40.7359 30.5022C39.7316 29.9307 39.1861 28.5974 39.1861 26.7879V21.2208C39.1861 18.5455 38.1299 16.6494 36.355 16.1299C33.368 15.2554 31.1342 18.9177 30.2771 20.2944L24.987 28.8571V18.4069C24.9264 16 24.1472 14.5541 22.658 14.1212C21.6797 13.8355 20.2078 13.9481 18.7792 16.1299L6.95238 35.1169C5.37662 32.1126 4.55411 28.7619 4.57143 25.368C4.57143 13.9221 13.7143 4.61472 24.987 4.61472C36.2597 4.61472 45.4286 13.9221 45.4286 25.368V25.4286C45.4286 25.4286 45.4286 25.4719 45.4286 25.4892C45.5411 27.697 44.8225 29.4632 43.4632 30.3203ZM50 25.368V25.2554C49.9048 11.316 38.7186 0 24.987 0C11.2554 0 0 11.3766 0 25.368C0 39.3593 11.2035 50.7359 24.987 50.7359C31.3074 50.7359 37.3853 48.3117 41.974 43.9654C42.9004 43.0909 42.9524 41.6364 42.0952 40.7013C41.2641 39.7836 39.8528 39.7143 38.9264 40.5455L38.9178 40.5541C30.8225 48.2338 18.0346 47.8961 10.355 39.8009C10.1645 39.6017 9.98269 39.4026 9.80087 39.1948L20.4416 22.0779V29.974C20.4416 33.7662 21.9134 34.9957 23.1429 35.3593C24.3723 35.7229 26.2684 35.4719 28.2424 32.2597L34.1299 22.7359C34.3117 22.4329 34.4849 22.1645 34.6494 21.9394V26.7792C34.6494 30.329 36.0693 33.1602 38.5714 34.5628C40.8831 35.8095 43.6883 35.697 45.8961 34.2684C48.6407 32.4848 50.1385 29.2554 49.9827 25.368H50Z" fill="#A5A6A9"/>
</svg>
