<svg width="16" height="16" viewBox="0 0 16 16" fill="none" xmlns="http://www.w3.org/2000/svg">
<g opacity="0.9">
<path d="M14.815 5.67851C14.7591 5.62612 14.6933 5.58527 14.6216 5.55829C14.5499 5.53131 14.4735 5.51874 14.3969 5.52129C14.3203 5.52383 14.2449 5.54145 14.1752 5.57313C14.1054 5.60481 14.0425 5.64994 13.9902 5.70593C12.9179 6.85222 12.3754 7.673 12.3754 8.1461V12.5213C12.3754 12.676 12.314 12.8244 12.2046 12.9338C12.0952 13.0432 11.9468 13.1046 11.7921 13.1046C11.6374 13.1046 11.489 13.0432 11.3796 12.9338C11.2702 12.8244 11.2087 12.676 11.2087 12.5213V4.64597C11.2087 4.25918 11.0551 3.88823 10.7816 3.61473C10.5081 3.34123 10.1371 3.18758 9.75033 3.18758H9.60565C9.56698 3.18758 9.52988 3.17222 9.50253 3.14487C9.47518 3.11752 9.45982 3.08042 9.45982 3.04174V2.02087C9.45951 1.75021 9.35185 1.49073 9.16047 1.29935C8.96909 1.10796 8.7096 1.00031 8.43894 1H2.02204C1.75123 1.00015 1.49153 1.10772 1.29993 1.29911C1.10833 1.49049 1.00046 1.75006 1 2.02087L1 13.1046C1.00046 13.3752 1.10817 13.6346 1.29952 13.826C1.49087 14.0173 1.75026 14.125 2.02087 14.1255H8.43778C8.70844 14.1252 8.96792 14.0175 9.1593 13.8261C9.35069 13.6348 9.45834 13.3753 9.45865 13.1046V4.50013C9.45865 4.46145 9.47401 4.42436 9.50136 4.39701C9.52871 4.36966 9.56581 4.35429 9.60449 4.35429H9.75033C9.82768 4.35429 9.90187 4.38502 9.95657 4.43972C10.0113 4.49442 10.042 4.56861 10.042 4.64597V12.5213C10.042 12.9854 10.2264 13.4305 10.5546 13.7587C10.8828 14.0869 11.3279 14.2713 11.7921 14.2713C12.2562 14.2713 12.7014 14.0869 13.0296 13.7587C13.3578 13.4305 13.5421 12.9854 13.5421 12.5213V11.2221C13.542 11.195 13.5495 11.1684 13.5637 11.1453C13.5779 11.1222 13.5984 11.1036 13.6226 11.0915L14.2252 10.7899C14.3708 10.7176 14.4933 10.606 14.5787 10.4678C14.6642 10.3295 14.7093 10.1701 14.7088 10.0076V9.31281C14.7088 9.08074 14.6167 8.85817 14.4526 8.69407C14.2885 8.52997 14.0659 8.43778 13.8338 8.43778H13.6821C13.6437 8.43778 13.6067 8.42257 13.5794 8.39548C13.5521 8.36838 13.5366 8.33158 13.5363 8.29311V8.2021C13.8948 7.58033 14.3342 7.0089 14.843 6.50279C14.9486 6.38975 15.0049 6.23942 14.9997 6.08485C14.9944 5.93028 14.928 5.78412 14.815 5.67851ZM7.27048 9.75033C7.27048 9.82768 7.23975 9.90187 7.18505 9.95657C7.13035 10.0113 7.05616 10.042 6.97881 10.042H6.39545C6.31809 10.042 6.2439 10.0113 6.1892 9.95657C6.1345 9.90187 6.10377 9.82768 6.10377 9.75033V8.00026C6.10377 7.9229 6.1345 7.84871 6.1892 7.79401C6.2439 7.73931 6.31809 7.70858 6.39545 7.70858H6.97881C7.05616 7.70858 7.13035 7.73931 7.18505 7.79401C7.23975 7.84871 7.27048 7.9229 7.27048 8.00026V9.75033ZM7.85384 4.64597C7.85384 4.72333 7.82311 4.79752 7.76841 4.85222C7.71371 4.90692 7.63952 4.93765 7.56216 4.93765H2.89532C2.81796 4.93765 2.74377 4.90692 2.68907 4.85222C2.63437 4.79752 2.60364 4.72333 2.60364 4.64597V2.8959C2.60364 2.81855 2.63437 2.74436 2.68907 2.68966C2.74377 2.63496 2.81796 2.60423 2.89532 2.60423H7.56216C7.63952 2.60423 7.71371 2.63496 7.76841 2.68966C7.82311 2.74436 7.85384 2.81855 7.85384 2.8959V4.64597Z" fill="white"/>
</g>
</svg>
