<svg width="40" height="32" viewBox="0 0 40 32" fill="none" xmlns="http://www.w3.org/2000/svg">
<rect x="0.5" y="0.5" width="39" height="31" rx="4.5" stroke="#06B6D4"/>
<g opacity="0.9">
<path fill-rule="evenodd" clip-rule="evenodd" d="M23.0477 8.57868C23.5473 8.57868 24.046 8.64821 24.5202 8.80524C27.4423 9.74274 28.4952 12.9068 27.6156 15.6724C27.1169 17.0857 26.3015 18.3756 25.2335 19.4295C23.7048 20.8904 22.0273 22.1873 20.2215 23.3045L20.0236 23.4224L19.8177 23.2966C18.0056 22.1873 16.3186 20.8904 14.7756 19.4216C13.7148 18.3677 12.8986 17.0857 12.3919 15.6724C11.4973 12.9068 12.5502 9.74274 15.5039 8.78883C15.7335 8.71071 15.9702 8.65602 16.2077 8.62555H16.3027C16.5252 8.59352 16.7461 8.57868 16.9677 8.57868H17.0548C17.5536 8.59352 18.0365 8.67946 18.5044 8.83649H18.5511C18.5827 8.85133 18.6065 8.86774 18.6223 8.88258C18.7973 8.93805 18.9627 9.00055 19.1211 9.08649L19.4219 9.2193C19.4946 9.25756 19.5762 9.31602 19.6467 9.36654C19.6914 9.39856 19.7316 9.42738 19.7623 9.44586C19.7752 9.45339 19.7884 9.46095 19.8016 9.46858C19.8695 9.50768 19.9402 9.54841 19.9998 9.59352C20.8793 8.93024 21.9473 8.57086 23.0477 8.57868ZM25.1536 14.2037C25.4781 14.1951 25.7552 13.9381 25.779 13.6091V13.5162C25.8027 12.4216 25.1306 11.4302 24.1086 11.0474C23.784 10.9373 23.4277 11.1099 23.309 11.4381C23.1981 11.7662 23.3723 12.1256 23.7048 12.242C24.2123 12.4295 24.5519 12.9224 24.5519 13.4685V13.4927C24.5368 13.6716 24.5915 13.8443 24.7023 13.9771C24.8131 14.1099 24.9794 14.1873 25.1536 14.2037Z" fill="white"/>
</g>
</svg>
