<svg width="24" height="24" viewBox="0 0 24 24" fill="none" xmlns="http://www.w3.org/2000/svg">
<g opacity="0.9">
<path d="M8.79058 21.5C7.137 21.4991 5.54984 20.8492 4.37058 19.69C3.78457 19.1199 3.3175 18.4391 2.99644 17.6872C2.67538 16.9353 2.50671 16.1272 2.5002 15.3096C2.49369 14.492 2.64946 13.6813 2.95851 12.9244C3.26755 12.1674 3.72372 11.4794 4.30058 10.9L5.56058 9.61999C5.65371 9.52474 5.76494 9.44906 5.88772 9.39739C6.0105 9.34573 6.14237 9.31911 6.27558 9.31911C6.40879 9.31911 6.54066 9.34573 6.66345 9.39739C6.78623 9.44906 6.89745 9.52474 6.99058 9.61999C7.17683 9.80735 7.28138 10.0608 7.28138 10.325C7.28138 10.5892 7.17683 10.8426 6.99058 11.03L5.74058 12.29C5.34269 12.6817 5.0267 13.1487 4.81101 13.6638C4.59532 14.1788 4.48424 14.7316 4.48424 15.29C4.48424 15.8484 4.59532 16.4012 4.81101 16.9162C5.0267 17.4312 5.34269 17.8982 5.74058 18.29C6.53956 19.0803 7.61677 19.5256 8.74058 19.53C9.29976 19.5271 9.85281 19.4134 10.3677 19.1954C10.8827 18.9774 11.3493 18.6595 11.7406 18.26L13.0006 16.97C13.0937 16.8747 13.2049 16.7991 13.3277 16.7474C13.4505 16.6957 13.5824 16.6691 13.7156 16.6691C13.8488 16.6691 13.9807 16.6957 14.1034 16.7474C14.2262 16.7991 14.3375 16.8747 14.4306 16.97C14.6168 17.1573 14.7214 17.4108 14.7214 17.675C14.7214 17.9392 14.6168 18.1926 14.4306 18.38L13.1706 19.68C12.0169 20.8298 10.4593 21.483 8.83058 21.5H8.79058Z" fill="white"/>
<path d="M17.7206 14.69C17.4563 14.6942 17.201 14.5935 17.0106 14.41C16.8244 14.2226 16.7198 13.9692 16.7198 13.705C16.7198 13.4408 16.8244 13.1874 17.0106 13L18.2706 11.72C18.6685 11.3283 18.9845 10.8613 19.2002 10.3462C19.4159 9.83118 19.527 9.27838 19.527 8.72C19.527 8.16162 19.4159 7.60882 19.2002 7.09378C18.9845 6.57874 18.6685 6.11175 18.2706 5.72C17.4717 4.92968 16.3944 4.48443 15.2706 4.48C14.7115 4.48289 14.1584 4.59662 13.6435 4.81461C13.1285 5.0326 12.6619 5.35053 12.2706 5.75L10.9306 7.06C10.8388 7.15656 10.7287 7.23381 10.6066 7.2872C10.4846 7.34059 10.3531 7.36905 10.2198 7.37092C10.0866 7.37278 9.95438 7.34801 9.83087 7.29805C9.70737 7.24809 9.59509 7.17396 9.50063 7.08C9.31438 6.89264 9.20984 6.63919 9.20984 6.375C9.20984 6.11081 9.31438 5.85736 9.50063 5.67L10.7606 4.37C11.3363 3.78319 12.0222 3.3159 12.779 2.99499C13.5359 2.67407 14.3486 2.50586 15.1706 2.5C16.8242 2.50088 18.4114 3.15083 19.5906 4.31C20.1766 4.88012 20.6437 5.56085 20.9648 6.31276C21.2858 7.06468 21.4545 7.87282 21.461 8.69038C21.4675 9.50795 21.3118 10.3187 21.0027 11.0756C20.6937 11.8325 20.2375 12.5206 19.6606 13.1L18.4006 14.38C18.2225 14.5673 17.9788 14.6784 17.7206 14.69Z" fill="white"/>
<path d="M9.50049 15.5C9.36889 15.5008 9.23842 15.4755 9.11659 15.4258C8.99475 15.376 8.88393 15.3027 8.79049 15.21C8.60424 15.0226 8.4997 14.7692 8.4997 14.505C8.4997 14.2408 8.60424 13.9874 8.79049 13.8L13.7305 8.8C13.8236 8.70475 13.9348 8.62907 14.0576 8.5774C14.1804 8.52574 14.3123 8.49912 14.4455 8.49912C14.5787 8.49912 14.7106 8.52574 14.8334 8.5774C14.9561 8.62907 15.0674 8.70475 15.1605 8.8C15.3467 8.98736 15.4513 9.24081 15.4513 9.505C15.4513 9.76918 15.3467 10.0226 15.1605 10.21L10.2205 15.21C10.1259 15.3039 10.0134 15.3779 9.88978 15.4277C9.76613 15.4775 9.63378 15.5021 9.50049 15.5Z" fill="white"/>
<path d="M8.79058 21.5C7.137 21.4991 5.54984 20.8492 4.37058 19.69C3.78457 19.1199 3.3175 18.4391 2.99644 17.6872C2.67538 16.9353 2.50671 16.1272 2.5002 15.3096C2.49369 14.492 2.64946 13.6813 2.95851 12.9244C3.26755 12.1674 3.72372 11.4794 4.30058 10.9L5.56058 9.61999C5.65371 9.52474 5.76494 9.44906 5.88772 9.39739C6.0105 9.34573 6.14237 9.31911 6.27558 9.31911C6.40879 9.31911 6.54066 9.34573 6.66345 9.39739C6.78623 9.44906 6.89745 9.52474 6.99058 9.61999C7.17683 9.80735 7.28138 10.0608 7.28138 10.325C7.28138 10.5892 7.17683 10.8426 6.99058 11.03L5.74058 12.29C5.34269 12.6817 5.0267 13.1487 4.81101 13.6638C4.59532 14.1788 4.48424 14.7316 4.48424 15.29C4.48424 15.8484 4.59532 16.4012 4.81101 16.9162C5.0267 17.4312 5.34269 17.8982 5.74058 18.29C6.53956 19.0803 7.61677 19.5256 8.74058 19.53C9.29976 19.5271 9.85281 19.4134 10.3677 19.1954C10.8827 18.9774 11.3493 18.6595 11.7406 18.26L13.0006 16.97C13.0937 16.8747 13.2049 16.7991 13.3277 16.7474C13.4505 16.6957 13.5824 16.6691 13.7156 16.6691C13.8488 16.6691 13.9807 16.6957 14.1034 16.7474C14.2262 16.7991 14.3375 16.8747 14.4306 16.97C14.6168 17.1573 14.7214 17.4108 14.7214 17.675C14.7214 17.9392 14.6168 18.1926 14.4306 18.38L13.1706 19.68C12.0169 20.8298 10.4593 21.483 8.83058 21.5H8.79058Z" stroke="white"/>
<path d="M17.7206 14.69C17.4563 14.6942 17.201 14.5935 17.0106 14.41C16.8244 14.2226 16.7198 13.9692 16.7198 13.705C16.7198 13.4408 16.8244 13.1874 17.0106 13L18.2706 11.72C18.6685 11.3283 18.9845 10.8613 19.2002 10.3462C19.4159 9.83118 19.527 9.27838 19.527 8.72C19.527 8.16162 19.4159 7.60882 19.2002 7.09378C18.9845 6.57874 18.6685 6.11175 18.2706 5.72C17.4717 4.92968 16.3944 4.48443 15.2706 4.48C14.7115 4.48289 14.1584 4.59662 13.6435 4.81461C13.1285 5.0326 12.6619 5.35053 12.2706 5.75L10.9306 7.06C10.8388 7.15656 10.7287 7.23381 10.6066 7.2872C10.4846 7.34059 10.3531 7.36905 10.2198 7.37092C10.0866 7.37278 9.95438 7.34801 9.83087 7.29805C9.70737 7.24809 9.59509 7.17396 9.50063 7.08C9.31438 6.89264 9.20984 6.63919 9.20984 6.375C9.20984 6.11081 9.31438 5.85736 9.50063 5.67L10.7606 4.37C11.3363 3.78319 12.0222 3.3159 12.779 2.99499C13.5359 2.67407 14.3486 2.50586 15.1706 2.5C16.8242 2.50088 18.4114 3.15083 19.5906 4.31C20.1766 4.88012 20.6437 5.56085 20.9648 6.31276C21.2858 7.06468 21.4545 7.87282 21.461 8.69038C21.4675 9.50795 21.3118 10.3187 21.0027 11.0756C20.6937 11.8325 20.2375 12.5206 19.6606 13.1L18.4006 14.38C18.2225 14.5673 17.9788 14.6784 17.7206 14.69Z" stroke="white"/>
<path d="M9.50049 15.5C9.36889 15.5008 9.23842 15.4755 9.11659 15.4258C8.99475 15.376 8.88393 15.3027 8.79049 15.21C8.60424 15.0226 8.4997 14.7692 8.4997 14.505C8.4997 14.2408 8.60424 13.9874 8.79049 13.8L13.7305 8.8C13.8236 8.70475 13.9348 8.62907 14.0576 8.5774C14.1804 8.52574 14.3123 8.49912 14.4455 8.49912C14.5787 8.49912 14.7106 8.52574 14.8334 8.5774C14.9561 8.62907 15.0674 8.70475 15.1605 8.8C15.3467 8.98736 15.4513 9.24081 15.4513 9.505C15.4513 9.76918 15.3467 10.0226 15.1605 10.21L10.2205 15.21C10.1259 15.3039 10.0134 15.3779 9.88978 15.4277C9.76613 15.4775 9.63378 15.5021 9.50049 15.5Z" stroke="white"/>
</g>
</svg>
