<svg width="40" height="32" viewBox="0 0 40 32" fill="none" xmlns="http://www.w3.org/2000/svg">
<rect width="40" height="32" rx="4" fill="#6366F1"/>
<g opacity="0.9">
<path d="M24.6667 17.3333C23.6 17.3333 22.6667 17.8 22.0667 18.6L18.5333 16.8667C18.6 16.5333 18.6667 16.2667 18.6667 16C18.6667 15.7333 18.6 15.4 18.5333 15.1333L22.0667 13.4C22.6667 14.1333 23.6 14.6667 24.6667 14.6667C26.5333 14.6667 28 13.2 28 11.3333C28 9.46667 26.5333 8 24.6667 8C22.8 8 21.3333 9.46667 21.3333 11.3333C21.3333 11.6 21.4 11.9333 21.4667 12.2L17.9333 13.9333C17.3333 13.2 16.4 12.6667 15.3333 12.6667C13.4667 12.6667 12 14.1333 12 16C12 17.8667 13.4667 19.3333 15.3333 19.3333C16.4 19.3333 17.3333 18.8 17.9333 18L21.4667 19.7333C21.4 20.0667 21.3333 20.3333 21.3333 20.6667C21.3333 22.5333 22.8 24 24.6667 24C26.5333 24 28 22.5333 28 20.6667C28 18.8 26.5333 17.3333 24.6667 17.3333Z" fill="white"/>
</g>
</svg>
