<svg width="20" height="20" viewBox="0 0 20 20" fill="none" xmlns="http://www.w3.org/2000/svg">
<g opacity="0.9" clip-path="url(#clip0)">
<path d="M19.9608 2.10584C19.9446 2.03199 19.9092 1.96374 19.8581 1.90798C19.807 1.85223 19.7421 1.81096 19.67 1.78834C19.4072 1.7363 19.1353 1.75558 18.8825 1.84418C18.8825 1.84418 1.35833 8.14334 0.357494 8.84084C0.142494 8.99084 0.0699935 9.07834 0.0341602 9.18084C-0.139173 9.68084 0.399994 9.89584 0.399994 9.89584L4.91666 11.3675C4.99303 11.3812 5.07156 11.3766 5.14583 11.3542C6.17249 10.705 15.4792 4.82584 16.02 4.62834C16.1033 4.60334 16.1675 4.62834 16.1508 4.69084C15.9358 5.44501 7.89333 12.5892 7.84916 12.6325C7.82765 12.6501 7.81089 12.6729 7.80041 12.6986C7.78993 12.7244 7.78606 12.7524 7.78916 12.78L7.36749 17.19C7.36749 17.19 7.19083 18.5625 8.56333 17.19C9.53666 16.2158 10.4708 15.4092 10.9375 15.0167C12.4908 16.0892 14.1617 17.275 14.8825 17.8958C15.0037 18.0132 15.1474 18.1049 15.3049 18.1655C15.4624 18.226 15.6305 18.2542 15.7992 18.2483C16.0068 18.223 16.2019 18.1351 16.3583 17.9962C16.5148 17.8573 16.6252 17.6741 16.675 17.4708C16.675 17.4708 19.8667 4.61834 19.9733 2.89668C19.9842 2.73001 19.9983 2.62001 20 2.50418C20.0052 2.37023 19.992 2.23621 19.9608 2.10584Z" fill="white"/>
</g>
<defs>
<clipPath id="clip0">
<rect width="20" height="20" fill="white"/>
</clipPath>
</defs>
</svg>
