<svg width="72" height="32" viewBox="0 0 72 32" fill="none" xmlns="http://www.w3.org/2000/svg">
<rect width="72" height="32" rx="4" fill="#FACC15"/>
<path opacity="0.9" d="M21.136 12.684H18.098V11.088H25.938V12.684H22.9V21H21.136V12.684ZM25.7059 14.28H27.3859V15.344H27.4139C27.6006 14.952 27.8666 14.6487 28.2119 14.434C28.5572 14.2193 28.9539 14.112 29.4019 14.112C29.5046 14.112 29.6026 14.1213 29.6959 14.14C29.7986 14.1587 29.9012 14.182 30.0039 14.21V15.834C29.8639 15.7967 29.7239 15.7687 29.5839 15.75C29.4532 15.722 29.3226 15.708 29.1919 15.708C28.7999 15.708 28.4826 15.7827 28.2399 15.932C28.0066 16.072 27.8246 16.2353 27.6939 16.422C27.5726 16.6087 27.4886 16.7953 27.4419 16.982C27.4046 17.1687 27.3859 17.3087 27.3859 17.402V21H25.7059V14.28ZM35.3473 20.076H35.3053C35.0626 20.4587 34.7546 20.7387 34.3813 20.916C34.008 21.084 33.5973 21.168 33.1493 21.168C32.8413 21.168 32.538 21.126 32.2393 21.042C31.95 20.958 31.6886 20.832 31.4553 20.664C31.2313 20.496 31.0493 20.286 30.9093 20.034C30.7693 19.782 30.6993 19.488 30.6993 19.152C30.6993 18.788 30.7646 18.48 30.8953 18.228C31.026 17.9667 31.1986 17.752 31.4133 17.584C31.6373 17.4067 31.894 17.2667 32.1833 17.164C32.4726 17.0613 32.7713 16.9867 33.0793 16.94C33.3966 16.884 33.714 16.8513 34.0313 16.842C34.3486 16.8233 34.6473 16.814 34.9273 16.814H35.3473V16.632C35.3473 16.212 35.2026 15.8993 34.9133 15.694C34.624 15.4793 34.2553 15.372 33.8073 15.372C33.4526 15.372 33.1213 15.4373 32.8133 15.568C32.5053 15.6893 32.2393 15.8573 32.0153 16.072L31.1333 15.19C31.5066 14.8073 31.9406 14.532 32.4353 14.364C32.9393 14.196 33.4573 14.112 33.9893 14.112C34.4653 14.112 34.8666 14.168 35.1933 14.28C35.52 14.3827 35.7906 14.518 36.0053 14.686C36.22 14.854 36.3833 15.05 36.4953 15.274C36.6166 15.4887 36.7006 15.708 36.7473 15.932C36.8033 16.156 36.836 16.3753 36.8453 16.59C36.8546 16.7953 36.8593 16.9773 36.8593 17.136V21H35.3473V20.076ZM35.2493 17.99H34.8993C34.666 17.99 34.4046 17.9993 34.1153 18.018C33.826 18.0367 33.5506 18.0833 33.2893 18.158C33.0373 18.2233 32.8226 18.326 32.6453 18.466C32.468 18.5967 32.3793 18.7833 32.3793 19.026C32.3793 19.1847 32.412 19.32 32.4773 19.432C32.552 19.5347 32.6453 19.6233 32.7573 19.698C32.8693 19.7727 32.9953 19.8287 33.1353 19.866C33.2753 19.894 33.4153 19.908 33.5553 19.908C34.134 19.908 34.5586 19.7727 34.8293 19.502C35.1093 19.222 35.2493 18.844 35.2493 18.368V17.99ZM43.9868 19.992H43.9588C43.7162 20.4027 43.3895 20.7013 42.9788 20.888C42.5682 21.0747 42.1248 21.168 41.6488 21.168C41.1262 21.168 40.6595 21.0793 40.2488 20.902C39.8475 20.7153 39.5022 20.4633 39.2128 20.146C38.9235 19.8287 38.7042 19.4553 38.5548 19.026C38.4055 18.5967 38.3308 18.1347 38.3308 17.64C38.3308 17.1453 38.4102 16.6833 38.5688 16.254C38.7275 15.8247 38.9468 15.4513 39.2268 15.134C39.5162 14.8167 39.8615 14.5693 40.2628 14.392C40.6642 14.2053 41.1028 14.112 41.5788 14.112C41.8962 14.112 42.1762 14.1447 42.4188 14.21C42.6615 14.2753 42.8762 14.3593 43.0628 14.462C43.2495 14.5647 43.4082 14.6767 43.5388 14.798C43.6695 14.91 43.7768 15.022 43.8608 15.134H43.9028V10.416H45.5828V21H43.9868V19.992ZM40.0108 17.64C40.0108 17.9013 40.0528 18.1533 40.1368 18.396C40.2302 18.6387 40.3608 18.8533 40.5288 19.04C40.7062 19.2267 40.9162 19.376 41.1588 19.488C41.4015 19.6 41.6768 19.656 41.9848 19.656C42.2928 19.656 42.5682 19.6 42.8108 19.488C43.0535 19.376 43.2588 19.2267 43.4268 19.04C43.6042 18.8533 43.7348 18.6387 43.8188 18.396C43.9122 18.1533 43.9588 17.9013 43.9588 17.64C43.9588 17.3787 43.9122 17.1267 43.8188 16.884C43.7348 16.6413 43.6042 16.4267 43.4268 16.24C43.2588 16.0533 43.0535 15.904 42.8108 15.792C42.5682 15.68 42.2928 15.624 41.9848 15.624C41.6768 15.624 41.4015 15.68 41.1588 15.792C40.9162 15.904 40.7062 16.0533 40.5288 16.24C40.3608 16.4267 40.2302 16.6413 40.1368 16.884C40.0528 17.1267 40.0108 17.3787 40.0108 17.64ZM48.8292 18.228C48.8852 18.732 49.0812 19.124 49.4172 19.404C49.7532 19.684 50.1592 19.824 50.6352 19.824C51.0552 19.824 51.4052 19.74 51.6852 19.572C51.9745 19.3947 52.2265 19.1753 52.4412 18.914L53.6452 19.824C53.2532 20.3093 52.8145 20.6547 52.3292 20.86C51.8439 21.0653 51.3352 21.168 50.8032 21.168C50.2992 21.168 49.8232 21.084 49.3752 20.916C48.9272 20.748 48.5399 20.51 48.2132 20.202C47.8865 19.894 47.6252 19.5253 47.4292 19.096C47.2425 18.6573 47.1492 18.172 47.1492 17.64C47.1492 17.108 47.2425 16.6273 47.4292 16.198C47.6252 15.7593 47.8865 15.386 48.2132 15.078C48.5399 14.77 48.9272 14.532 49.3752 14.364C49.8232 14.196 50.2992 14.112 50.8032 14.112C51.2699 14.112 51.6945 14.196 52.0772 14.364C52.4692 14.5227 52.8005 14.756 53.0712 15.064C53.3512 15.372 53.5659 15.7547 53.7152 16.212C53.8739 16.66 53.9532 17.178 53.9532 17.766V18.228H48.8292ZM52.2732 16.968C52.2639 16.4733 52.1099 16.086 51.8112 15.806C51.5125 15.5167 51.0972 15.372 50.5652 15.372C50.0612 15.372 49.6599 15.5167 49.3612 15.806C49.0719 16.0953 48.8945 16.4827 48.8292 16.968H52.2732Z" fill="#090A0C"/>
</svg>
