<svg width="16" height="16" viewBox="0 0 16 16" fill="none" xmlns="http://www.w3.org/2000/svg">
<g opacity="0.9">
<path d="M7.2 0.147999C7.04307 0.0643427 6.8635 0.0330389 6.68752 0.0586576C6.51154 0.0842764 6.34836 0.165476 6.2218 0.290403C6.09523 0.41533 6.01191 0.577442 5.984 0.753074C5.9561 0.928705 5.98506 1.10866 6.06666 1.26667C6.55105 2.21554 6.80571 3.26496 6.81011 4.33031C6.81451 5.39567 6.56853 6.44715 6.092 7.4C6.07741 7.42599 6.05609 7.44757 6.03029 7.46248C6.00448 7.47739 5.97514 7.48508 5.94534 7.48474C5.91554 7.4844 5.88638 7.47604 5.86092 7.46054C5.83547 7.44505 5.81465 7.42298 5.80066 7.39667C5.62468 7.06884 5.49883 6.71648 5.42733 6.35133C5.41002 6.26739 5.37153 6.18927 5.31552 6.1244C5.25951 6.05952 5.18784 6.01004 5.10733 5.98067C5.02686 5.95118 4.94014 5.94299 4.85557 5.95689C4.771 5.97079 4.69146 6.00631 4.62466 6.06C3.69161 6.80398 3.01225 7.81902 2.6802 8.96525C2.34815 10.1115 2.37976 11.3325 2.77066 12.46C3.1397 13.5213 3.8423 14.4347 4.77345 15.0637C5.70461 15.6926 6.8143 16.0033 7.93666 15.9493C10.756 15.9493 12.7273 14.5193 13.3473 12.028C14.2667 8.35 12.0107 2.69733 7.2 0.147999ZM10.358 12.0667C10.2778 12.618 9.99226 13.1186 9.55859 13.4684C9.12491 13.8181 8.57512 13.9911 8.01933 13.9527C7.48575 13.9529 6.96913 13.7652 6.56013 13.4225C6.15113 13.0798 5.87588 12.604 5.78266 12.0787C5.77289 12.0242 5.77681 11.9682 5.79406 11.9157C5.81132 11.8632 5.84137 11.8158 5.88151 11.7778C5.92165 11.7397 5.97062 11.7123 6.02401 11.6979C6.07739 11.6835 6.13352 11.6826 6.18733 11.6953C6.52148 11.69 6.84901 11.6013 7.1401 11.4371C7.43119 11.2729 7.6766 11.0386 7.854 10.7553C8.05721 10.5403 8.19385 10.271 8.24743 9.97998C8.30102 9.68898 8.26926 9.38869 8.156 9.11533C8.12259 9.05577 8.10828 8.98739 8.11501 8.91943C8.12174 8.85147 8.14918 8.78722 8.19361 8.73537C8.23805 8.68352 8.29734 8.64656 8.36346 8.6295C8.42959 8.61245 8.49936 8.61611 8.56333 8.64C9.201 8.93018 9.72371 9.42471 10.0487 10.0453C10.3738 10.666 10.4826 11.3772 10.358 12.0667Z" fill="white"/>
</g>
</svg>
