<svg width="20" height="20" viewBox="0 0 20 20" fill="none" xmlns="http://www.w3.org/2000/svg">
<g opacity="0.9">
<path d="M20 3.83332C19.25 4.16666 18.5 4.41666 17.6667 4.49999C18.5 3.99999 19.1667 3.16666 19.5 2.24999C18.6667 2.74999 17.8333 3.08332 16.9167 3.24999C16.1667 2.41666 15.0833 1.91666 13.9167 1.91666C11.6667 1.91666 9.83333 3.74999 9.83333 5.99999C9.83333 6.33332 9.83333 6.66666 9.91667 6.91666C6.41667 6.74999 3.41667 5.08332 1.41667 2.58332C1 3.24999 0.833333 3.91666 0.833333 4.66666C0.833333 6.08332 1.58333 7.33332 2.66667 8.08332C2 8.08332 1.33333 7.91666 0.833333 7.58332C0.833333 7.58332 0.833333 7.58332 0.833333 7.66666C0.833333 9.66666 2.25 11.3333 4.08333 11.6667C3.75 11.75 3.41667 11.8333 3 11.8333C2.75 11.8333 2.5 11.8333 2.25 11.75C2.75 13.4167 4.25 14.5833 6.08333 14.5833C4.66667 15.6667 2.91667 16.3333 1 16.3333C0.666667 16.3333 0.333333 16.3333 0 16.25C1.83333 17.4167 4 18.0833 6.25 18.0833C13.8333 18.0833 17.9167 11.8333 17.9167 6.41666C17.9167 6.24999 17.9167 6.08332 17.9167 5.91666C18.75 5.33332 19.4167 4.58332 20 3.83332Z" fill="white"/>
</g>
</svg>
